<svg version="1.1" viewBox="0.0 0.0 100.0 100.0" fill="none" stroke="none" stroke-linecap="square" stroke-miterlimit="10" xmlns:xlink="http://www.w3.org/1999/xlink" xmlns="http://www.w3.org/2000/svg"><clipPath id="p.0"><path d="m0 0l100.0 0l0 100.0l-100.0 0l0 -100.0z" clip-rule="nonzero"/></clipPath><g clip-path="url(#p.0)"><path fill="#000000" fill-opacity="0.0" d="m0 0l100.0 0l0 100.0l-100.0 0z" fill-rule="evenodd"/><path fill="#000000" fill-opacity="0.0" d="m16.0 -6.4241953l61.102364 0l0 116.34646l-61.102364 0z" fill-rule="evenodd"/><path fill="#666666" d="m56.6875 34.578926q1.515625 -1.125 2.390625 -2.953125q0.875 -1.84375 0.875 -3.84375q0 -1.921875 -0.84375 -3.234375q-0.828125 -1.328125 -2.421875 -1.96875l-4.484375 19.515625l1.84375 2.0q3.109375 3.28125 5.0625 5.8125q1.96875 2.515625 3.28125 5.640625q1.328125 3.109375 1.328125 6.703125q0 5.046875 -2.71875 9.296875q-2.71875 4.234375 -7.359375 6.75q-4.640625 2.515625 -10.234375 2.515625l-2.328125 10.0l-4.0 0l2.328125 -10.234375q-6.09375 -0.96875 -9.6875 -4.71875q-3.59375 -3.765625 -3.59375 -9.28125q0 -4.71875 2.46875 -7.75q2.484375 -3.046875 6.40625 -3.046875q2.640625 0 4.5625 1.484375q1.921875 1.46875 2.3125 3.796875q-3.359375 0 -5.4375 1.953125q-2.078125 1.953125 -2.078125 5.15625q0 2.796875 1.671875 4.640625q1.6875 1.84375 4.65625 2.25l5.359375 -23.6875q-1.453125 -1.6875 -1.53125 -1.765625q-4.3125 -5.109375 -6.484375 -8.75q-2.15625 -3.640625 -2.15625 -7.890625q0 -4.15625 2.28125 -7.46875q2.28125 -3.328125 6.28125 -5.25q4.0 -1.921875 8.96875 -1.921875l0.15625 0l1.84375 -8.000001l4.078125 0l-1.921875 8.406251q4.71875 0.875 7.390625 3.765625q2.6875 2.875 2.6875 7.03125q0 3.359375 -1.6875 5.453125q-1.671875 2.078125 -4.390625 2.078125q-3.046875 0 -4.875 -2.484375zm-10.5625 -4.328125q0 3.84375 2.953125 8.0l3.609375 -15.921875q-2.96875 0.484375 -4.765625 2.65625q-1.796875 2.15625 -1.796875 5.265625zm6.796875 34.96875q0 -4.71875 -3.765625 -9.84375l-4.46875 19.6875q3.75 -0.640625 5.984375 -3.3125q2.25 -2.6875 2.25 -6.53125z" fill-rule="nonzero"/><path fill="#000000" fill-opacity="0.0" d="m20.296637 49.6952l0 0c0 -24.657122 12.24695 -44.645668 27.35433 -44.645668l0 0c7.254818 0 14.212502 4.7037263 19.342434 13.076414c5.1299286 8.372686 8.011894 19.728487 8.011894 31.569254l0 0c0 24.657124 -12.246948 44.64567 -27.354328 44.64567l0 0c-15.10738 0 -27.35433 -19.988548 -27.35433 -44.64567z" fill-rule="evenodd"/><path stroke="#666666" stroke-width="4.0" stroke-linejoin="round" stroke-linecap="butt" d="m20.296637 49.6952l0 0c0 -24.657122 12.24695 -44.645668 27.35433 -44.645668l0 0c7.254818 0 14.212502 4.7037263 19.342434 13.076414c5.1299286 8.372686 8.011894 19.728487 8.011894 31.569254l0 0c0 24.657124 -12.246948 44.64567 -27.354328 44.64567l0 0c-15.10738 0 -27.35433 -19.988548 -27.35433 -44.64567z" fill-rule="evenodd"/></g></svg>