<svg version="1.1" viewBox="0.0 0.0 100.0 100.0" fill="none" stroke="none" stroke-linecap="square" stroke-miterlimit="10" xmlns:xlink="http://www.w3.org/1999/xlink" xmlns="http://www.w3.org/2000/svg"><clipPath id="p.0"><path d="m0 0l100.0 0l0 100.0l-100.0 0l0 -100.0z" clip-rule="nonzero"/></clipPath><g clip-path="url(#p.0)"><path fill="#000000" fill-opacity="0.0" d="m0 0l100.0 0l0 100.0l-100.0 0z" fill-rule="evenodd"/><path fill="#000000" fill-opacity="0.0" d="m25.999964 42.58352l6.633257 -4.583744l2.5338745 -7.416254l8.199345 -2.0980835E-4l6.63356 -4.583311l6.63356 4.583311l8.199341 2.0980835E-4l2.5338745 7.416254l6.6332626 4.583744l-2.5335999 7.416481l2.5335999 7.416481l-6.6332626 4.583744l-2.5338745 7.416256l-8.199341 2.0599365E-4l-6.63356 4.583313l-6.63356 -4.583313l-8.199345 -2.0599365E-4l-2.5338745 -7.416256l-6.633257 -4.583744l2.533598 -7.416481z" fill-rule="evenodd"/><path stroke="#000000" stroke-width="4.0" stroke-linejoin="round" stroke-linecap="butt" d="m25.999964 42.58352l6.633257 -4.583744l2.5338745 -7.416254l8.199345 -2.0980835E-4l6.63356 -4.583311l6.63356 4.583311l8.199341 2.0980835E-4l2.5338745 7.416254l6.6332626 4.583744l-2.5335999 7.416481l2.5335999 7.416481l-6.6332626 4.583744l-2.5338745 7.416256l-8.199341 2.0599365E-4l-6.63356 4.583313l-6.63356 -4.583313l-8.199345 -2.0599365E-4l-2.5338745 -7.416256l-6.633257 -4.583744l2.533598 -7.416481z" fill-rule="evenodd"/><path fill="#000000" d="m42.961346 56.92l0 -13.359375l4.03125 0l2.421875 9.109375l2.390625 -9.109375l4.046875 0l0 13.359375l-2.5 0l0 -10.515625l-2.65625 10.515625l-2.59375 0l-2.640625 -10.515625l0 10.515625l-2.5 0z" fill-rule="nonzero"/></g></svg>