<svg version="1.1" viewBox="0.0 0.0 436.96587926509187 115.21784776902886" fill="none" stroke="none" stroke-linecap="square" stroke-miterlimit="10" xmlns:xlink="http://www.w3.org/1999/xlink" xmlns="http://www.w3.org/2000/svg"><clipPath id="p.0"><path d="m0 0l436.96588 0l0 115.21785l-436.96588 0l0 -115.21785z" clip-rule="nonzero"/></clipPath><g clip-path="url(#p.0)"><path fill="#000000" fill-opacity="0.0" d="m0 0l436.96588 0l0 115.21785l-436.96588 0z" fill-rule="evenodd"/><path fill="#000000" fill-opacity="0.0" d="m56.80315 15.839895l390.11023 0l0 58.173225l-390.11023 0z" fill-rule="evenodd"/><path fill="#000000" d="m68.06877 55.559895l0 -22.90625l6.921875 0l4.15625 15.625l4.109375 -15.625l6.9375 0l0 22.90625l-4.296875 0l0 -18.03125l-4.546875 18.03125l-4.453125 0l-4.53125 -18.03125l0 18.03125l-4.296875 0zm26.578125 0l0 -22.90625l4.625 0l0 22.90625l-4.625 0zm23.6875 -8.421875l4.484375 1.421875q-1.03125 3.75 -3.4375 5.578125q-2.390625 1.8125 -6.078125 1.8125q-4.5625 0 -7.5 -3.109375q-2.9375 -3.125 -2.9375 -8.53125q0 -5.71875 2.953125 -8.875q2.953125 -3.171875 7.765625 -3.171875q4.203125 0 6.828125 2.484375q1.5625 1.46875 2.34375 4.21875l-4.578125 1.09375q-0.40625 -1.78125 -1.703125 -2.8125q-1.28125 -1.03125 -3.125 -1.03125q-2.546875 0 -4.140625 1.828125q-1.578125 1.828125 -1.578125 5.921875q0 4.34375 1.5625 6.1875q1.5625 1.84375 4.0625 1.84375q1.84375 0 3.171875 -1.171875q1.328125 -1.171875 1.90625 -3.6875zm8.46875 8.421875l0 -22.90625l9.734375 0q3.671875 0 5.328125 0.625q1.671875 0.609375 2.671875 2.1875q1.0 1.578125 1.0 3.609375q0 2.578125 -1.515625 4.265625q-1.515625 1.671875 -4.53125 2.109375q1.5 0.875 2.46875 1.921875q0.984375 1.046875 2.640625 3.71875l2.796875 4.46875l-5.53125 0l-3.34375 -4.984375q-1.78125 -2.671875 -2.4375 -3.359375q-0.65625 -0.703125 -1.390625 -0.953125q-0.734375 -0.265625 -2.328125 -0.265625l-0.9375 0l0 9.5625l-4.625 0zm4.625 -13.21875l3.421875 0q3.328125 0 4.15625 -0.28125q0.828125 -0.28125 1.296875 -0.96875q0.46875 -0.6875 0.46875 -1.71875q0 -1.15625 -0.625 -1.859375q-0.609375 -0.71875 -1.734375 -0.90625q-0.5625 -0.078125 -3.375 -0.078125l-3.609375 0l0 5.8125zm17.53125 1.90625q0 -3.5 1.046875 -5.875q0.78125 -1.75 2.125 -3.140625q1.359375 -1.390625 2.96875 -2.0625q2.140625 -0.90625 4.9375 -0.90625q5.0625 0 8.09375 3.140625q3.046875 3.140625 3.046875 8.734375q0 5.546875 -3.015625 8.6875q-3.015625 3.125 -8.0625 3.125q-5.109375 0 -8.125 -3.109375q-3.015625 -3.125 -3.015625 -8.59375zm4.765625 -0.15625q0 3.890625 1.796875 5.90625q1.796875 2.0 4.5625 2.0q2.765625 0 4.53125 -1.984375q1.78125 -2.0 1.78125 -5.984375q0 -3.9375 -1.734375 -5.875q-1.71875 -1.9375 -4.578125 -1.9375q-2.859375 0 -4.609375 1.96875q-1.75 1.953125 -1.75 5.90625zm29.953125 11.46875l0 -22.90625l16.984375 0l0 3.875l-12.359375 0l0 5.078125l11.5 0l0 3.859375l-11.5 0l0 6.234375l12.796875 0l0 3.859375l-17.421875 0zm20.8125 -6.109375l0 -4.390625l8.625 0l0 4.390625l-8.625 0zm25.84375 -2.3125l4.484375 1.421875q-1.03125 3.75 -3.4375 5.578125q-2.390625 1.8125 -6.078125 1.8125q-4.5625 0 -7.5 -3.109375q-2.9375 -3.125 -2.9375 -8.53125q0 -5.71875 2.953125 -8.875q2.953125 -3.171875 7.765625 -3.171875q4.203125 0 6.828125 2.484375q1.5625 1.46875 2.34375 4.21875l-4.578125 1.09375q-0.40625 -1.78125 -1.703125 -2.8125q-1.28125 -1.03125 -3.125 -1.03125q-2.546875 0 -4.140625 1.828125q-1.578125 1.828125 -1.578125 5.921875q0 4.34375 1.5625 6.1875q1.5625 1.84375 4.0625 1.84375q1.84375 0 3.171875 -1.171875q1.328125 -1.171875 1.90625 -3.6875zm7.515625 -2.890625q0 -3.5 1.046875 -5.875q0.78125 -1.75 2.125 -3.140625q1.359375 -1.390625 2.96875 -2.0625q2.140625 -0.90625 4.9375 -0.90625q5.0625 0 8.093765 3.140625q3.046875 3.140625 3.046875 8.734375q0 5.546875 -3.015625 8.6875q-3.0156403 3.125 -8.062515 3.125q-5.109375 0 -8.125 -3.109375q-3.015625 -3.125 -3.015625 -8.59375zm4.765625 -0.15625q0 3.890625 1.796875 5.90625q1.796875 2.0 4.5625 2.0q2.765625 0 4.53125 -1.984375q1.78125 -2.0 1.78125 -5.984375q0 -3.9375 -1.734375 -5.875q-1.71875 -1.9375 -4.578125 -1.9375q-2.859375 0 -4.609375 1.96875q-1.75 1.953125 -1.75 5.90625zm21.000015 11.46875l0 -22.90625l6.921875 0l4.15625 15.625l4.109375 -15.625l6.9375 0l0 22.90625l-4.296875 0l0 -18.03125l-4.546875 18.03125l-4.453125 0l-4.53125 -18.03125l0 18.03125l-4.296875 0zm26.65625 0l0 -22.90625l6.921875 0l4.15625 15.625l4.109375 -15.625l6.9375 0l0 22.90625l-4.296875 0l0 -18.03125l-4.546875 18.03125l-4.453125 0l-4.53125 -18.03125l0 18.03125l-4.296875 0zm26.71875 0l0 -22.90625l16.984375 0l0 3.875l-12.359375 0l0 5.078125l11.5 0l0 3.859375l-11.5 0l0 6.234375l12.796875 0l0 3.859375l-17.421875 0zm21.359375 0l0 -22.90625l9.734375 0q3.671875 0 5.328125 0.625q1.671875 0.609375 2.671875 2.1875q1.0 1.578125 1.0 3.609375q0 2.578125 -1.515625 4.265625q-1.515625 1.671875 -4.53125 2.109375q1.5 0.875 2.46875 1.921875q0.984375 1.046875 2.640625 3.71875l2.796875 4.46875l-5.53125 0l-3.34375 -4.984375q-1.78125 -2.671875 -2.4375 -3.359375q-0.65625 -0.703125 -1.390625 -0.953125q-0.734375 -0.265625 -2.328125 -0.265625l-0.9375 0l0 9.5625l-4.625 0zm4.625 -13.21875l3.421875 0q3.328125 0 4.15625 -0.28125q0.828125 -0.28125 1.296875 -0.96875q0.46875 -0.6875 0.46875 -1.71875q0 -1.15625 -0.625 -1.859375q-0.609375 -0.71875 -1.734375 -0.90625q-0.5625 -0.078125 -3.375 -0.078125l-3.609375 0l0 5.8125zm33.125 4.796875l4.484375 1.421875q-1.03125 3.75 -3.4375 5.578125q-2.390625 1.8125 -6.078125 1.8125q-4.5625 0 -7.5 -3.109375q-2.9375 -3.125 -2.9375 -8.53125q0 -5.71875 2.953125 -8.875q2.953125 -3.171875 7.765625 -3.171875q4.203125 0 6.828125 2.484375q1.5625 1.46875 2.34375 4.21875l-4.578125 1.09375q-0.40625 -1.78125 -1.703125 -2.8125q-1.28125 -1.03125 -3.125 -1.03125q-2.546875 0 -4.140625 1.828125q-1.578125 1.828125 -1.578125 5.921875q0 4.34375 1.5625 6.1875q1.5625 1.84375 4.0625 1.84375q1.84375 0 3.171875 -1.171875q1.328125 -1.171875 1.90625 -3.6875zm8.453125 8.421875l0 -22.90625l16.984375 0l0 3.875l-12.359375 0l0 5.078125l11.5 0l0 3.859375l-11.5 0l0 6.234375l12.796875 0l0 3.859375l-17.421875 0z" fill-rule="nonzero"/><path fill="#000000" fill-opacity="0.0" d="m58.55118 45.65884l370.61417 0l0 48.47244l-370.61417 0z" fill-rule="evenodd"/><path fill="#666666" d="m68.51993 72.698845l2.140625 -0.15625q-0.1875 1.0 -0.1875 1.46875q0 0.9375 0.59375 1.515625q0.59375 0.5625 1.640625 0.5625q0.765625 0 1.34375 -0.34375q0.578125 -0.34375 0.9375 -1.078125q0.28125 -0.546875 0.578125 -1.96875l2.5625 -12.187504l2.28125 0l-2.609375 12.562504q-0.5625 2.640625 -1.859375 3.78125q-1.28125 1.140625 -3.28125 1.140625q-2.125 0 -3.21875 -0.984375q-1.09375 -0.984375 -1.09375 -2.765625q0 -0.796875 0.171875 -1.546875zm20.328125 2.75q-2.234375 2.53125 -4.578125 2.53125q-1.453125 0 -2.34375 -0.828125q-0.875 -0.828125 -0.875 -2.015625q0 -0.796875 0.40625 -2.703125l1.5 -7.1875l2.109375 0l-1.65625 7.96875q-0.21875 0.984375 -0.21875 1.546875q0 0.703125 0.421875 1.09375q0.4375 0.390625 1.265625 0.390625q0.890625 0 1.734375 -0.4375q0.859375 -0.4375 1.46875 -1.171875q0.625 -0.734375 1.015625 -1.75q0.25 -0.640625 0.59375 -2.25l1.125 -5.390625l2.125 0l-2.609375 12.453125l-1.953125 0l0.46875 -2.25zm5.0507812 -2.0l2.125 -0.140625q0 0.921875 0.28125 1.5625q0.28125 0.640625 1.03125 1.0625q0.75 0.40625 1.765625 0.40625q1.40625 0 2.109375 -0.5625q0.703125 -0.5625 0.703125 -1.328125q0 -0.546875 -0.421875 -1.046875q-0.4375 -0.484375 -2.125 -1.203125q-1.671875 -0.71875 -2.140625 -1.015625q-0.78125 -0.484375 -1.1875 -1.125q-0.390625 -0.65625 -0.390625 -1.5q0 -1.484375 1.171875 -2.53125q1.171875 -1.0625 3.28125 -1.0625q2.34375 0 3.5625 1.09375q1.21875 1.078125 1.265625 2.84375l-2.0625 0.140625q-0.046875 -1.125 -0.796875 -1.78125q-0.75 -0.65625 -2.125 -0.65625q-1.109375 0 -1.71875 0.515625q-0.609375 0.5 -0.609375 1.078125q0 0.59375 0.53125 1.03125q0.359375 0.3125 1.8125 0.9375q2.4375 1.0625 3.078125 1.671875q1.0 0.96875 1.0 2.359375q0 0.9375 -0.5625 1.828125q-0.5625 0.890625 -1.734375 1.421875q-1.171875 0.53125 -2.75 0.53125q-2.15625 0 -3.671875 -1.0625q-1.5 -1.078125 -1.421875 -3.46875zm16.75 2.53125l-0.34375 1.734375q-0.765625 0.203125 -1.484375 0.203125q-1.265625 0 -2.015625 -0.625q-0.5625 -0.46875 -0.5625 -1.28125q0 -0.40625 0.3125 -1.890625l1.515625 -7.234375l-1.6875 0l0.34375 -1.640625l1.671875 0l0.65625 -3.0468788l2.421875 -1.46875l-0.953125 4.515629l2.09375 0l-0.359375 1.640625l-2.078125 0l-1.4375 6.890625q-0.265625 1.3125 -0.265625 1.5625q0 0.375 0.21875 0.578125q0.21875 0.203125 0.703125 0.203125q0.703125 0 1.25 -0.140625zm16.773438 0.171875q-1.09375 0.953125 -2.125 1.390625q-1.015625 0.4375 -2.171875 0.4375q-1.71875 0 -2.78125 -1.015625q-1.046875 -1.015625 -1.046875 -2.59375q0 -1.046875 0.46875 -1.84375q0.46875 -0.8125 1.25 -1.296875q0.796875 -0.484375 1.9375 -0.6875q0.703125 -0.140625 2.703125 -0.21875q2.0 -0.09375 2.875 -0.4375q0.234375 -0.859375 0.234375 -1.4375q0 -0.734375 -0.53125 -1.15625q-0.734375 -0.59375 -2.15625 -0.59375q-1.34375 0 -2.1875 0.59375q-0.84375 0.59375 -1.234375 1.6875l-2.140625 -0.1875q0.65625 -1.859375 2.078125 -2.84375q1.421875 -0.984375 3.59375 -0.984375q2.296875 0 3.65625 1.109375q1.03125 0.8125 1.03125 2.125q0 1.0 -0.296875 2.3125l-0.6875 3.09375q-0.328125 1.484375 -0.328125 2.40625q0 0.578125 0.25 1.6875l-2.140625 0q-0.171875 -0.609375 -0.25 -1.546875zm0.78125 -4.765625q-0.4375 0.1875 -0.953125 0.28125q-0.5 0.09375 -1.703125 0.1875q-1.84375 0.171875 -2.609375 0.421875q-0.765625 0.25 -1.15625 0.8125q-0.375 0.546875 -0.375 1.203125q0 0.890625 0.609375 1.46875q0.609375 0.578125 1.75 0.578125q1.0625 0 2.03125 -0.546875q0.96875 -0.5625 1.53125 -1.5625q0.5625 -1.0 0.875 -2.84375zm11.109375 6.3125l3.578125 -17.187504l2.828125 0l1.734375 11.140629q0.34375 2.1875 0.4375 4.203125q0.71875 -1.734375 2.390625 -4.703125l6.03125 -10.640629l2.875 0l-3.59375 17.187504l-2.265625 0l1.796875 -8.359375q0.625 -2.890625 1.78125 -6.484379q-0.734375 1.6718788 -1.828125 3.6093788l-6.390625 11.234375l-2.21875 0l-1.71875 -11.015625q-0.234375 -1.515625 -0.34375 -3.5312538q-0.296875 2.2656288 -0.578125 3.5937538l-2.28125 10.953125l-2.234375 0zm22.742188 -14.781254l0.5 -2.40625l2.109375 0l-0.5 2.40625l-2.109375 0zm-3.09375 14.781254l2.59375 -12.453125l2.125 0l-2.59375 12.453125l-2.125 0zm14.003906 -4.53125l2.125 0.21875q-0.796875 2.328125 -2.28125 3.46875q-1.46875 1.125 -3.34375 1.125q-2.015625 0 -3.28125 -1.3125q-1.265625 -1.3125 -1.265625 -3.671875q0 -2.03125 0.8125 -4.0q0.8125 -1.96875 2.3125 -3.0q1.515625 -1.03125 3.4375 -1.03125q2.015625 0 3.1875 1.140625q1.171875 1.125 1.171875 2.984375l-2.09375 0.140625q-0.015625 -1.171875 -0.6875 -1.84375q-0.671875 -0.671875 -1.765625 -0.671875q-1.28125 0 -2.21875 0.8125q-0.9375 0.8125 -1.46875 2.453125q-0.53125 1.640625 -0.53125 3.171875q0 1.59375 0.703125 2.390625q0.703125 0.796875 1.734375 0.796875q1.03125 0 1.96875 -0.78125q0.9375 -0.796875 1.484375 -2.390625zm3.40625 4.53125l2.609375 -12.453125l1.875 0l-0.53125 2.546875q0.953125 -1.4375 1.875 -2.125q0.921875 -0.703125 1.890625 -0.703125q0.625 0 1.546875 0.46875l-0.859375 1.96875q-0.546875 -0.40625 -1.203125 -0.40625q-1.125 0 -2.296875 1.25q-1.171875 1.234375 -1.828125 4.453125l-1.0625 5.0l-2.015625 0zm8.3671875 -4.71875q0 -3.65625 2.140625 -6.046875q1.78125 -1.96875 4.640625 -1.96875q2.25 0 3.625 1.40625q1.390625 1.40625 1.390625 3.796875q0 2.15625 -0.875 4.0q-0.859375 1.84375 -2.46875 2.828125q-1.59375 0.984375 -3.359375 0.984375q-1.453125 0 -2.65625 -0.625q-1.1875 -0.625 -1.8125 -1.75q-0.625 -1.140625 -0.625 -2.625zm2.125 -0.21875q0 1.765625 0.84375 2.671875q0.84375 0.90625 2.140625 0.90625q0.6875 0 1.34375 -0.265625q0.671875 -0.28125 1.25 -0.84375q0.578125 -0.5625 0.96875 -1.28125q0.40625 -0.734375 0.65625 -1.5625q0.359375 -1.15625 0.359375 -2.21875q0 -1.6875 -0.84375 -2.625q-0.84375 -0.9375 -2.140625 -0.9375q-1.0 0 -1.828125 0.484375q-0.8125 0.46875 -1.46875 1.390625q-0.65625 0.90625 -0.96875 2.125q-0.3125 1.203125 -0.3125 2.15625zm11.050781 0.6875l2.125 -0.140625q0 0.921875 0.28125 1.5625q0.28125 0.640625 1.03125 1.0625q0.75 0.40625 1.765625 0.40625q1.40625 0 2.109375 -0.5625q0.703125 -0.5625 0.703125 -1.328125q0 -0.546875 -0.421875 -1.046875q-0.4375 -0.484375 -2.125 -1.203125q-1.671875 -0.71875 -2.140625 -1.015625q-0.78125 -0.484375 -1.1875 -1.125q-0.390625 -0.65625 -0.390625 -1.5q0 -1.484375 1.171875 -2.53125q1.171875 -1.0625 3.28125 -1.0625q2.34375 0 3.5625 1.09375q1.21875 1.078125 1.265625 2.84375l-2.0625 0.140625q-0.046875 -1.125 -0.796875 -1.78125q-0.75 -0.65625 -2.125 -0.65625q-1.109375 0 -1.71875 0.515625q-0.609375 0.5 -0.609375 1.078125q0 0.59375 0.53125 1.03125q0.359375 0.3125 1.8125 0.9375q2.4375 1.0625 3.078125 1.671875q1.0 0.96875 1.0 2.359375q0 0.9375 -0.5625 1.828125q-0.5625 0.890625 -1.734375 1.421875q-1.171875 0.53125 -2.75 0.53125q-2.15625 0 -3.671875 -1.0625q-1.5 -1.078125 -1.421875 -3.46875zm20.9375 0.015625l2.0625 0.21875q-0.4375 1.53125 -2.046875 2.921875q-1.59375 1.375 -3.8125 1.375q-1.375 0 -2.53125 -0.640625q-1.15625 -0.640625 -1.765625 -1.859375q-0.59375 -1.21875 -0.59375 -2.78125q0 -2.03125 0.9375 -3.9375q0.9375 -1.921875 2.4375 -2.859375q1.5 -0.9375 3.25 -0.9375q2.234375 0 3.5625 1.390625q1.328125 1.375 1.328125 3.765625q0 0.921875 -0.171875 1.875l-9.15625 0q-0.046875 0.375 -0.046875 0.65625q0 1.75 0.796875 2.671875q0.8125 0.921875 1.96875 0.921875q1.09375 0 2.140625 -0.71875q1.0625 -0.71875 1.640625 -2.0625zm-6.15625 -3.078125l6.984375 0q0 -0.328125 0 -0.46875q0 -1.59375 -0.796875 -2.4375q-0.796875 -0.859375 -2.046875 -0.859375q-1.359375 0 -2.484375 0.9375q-1.109375 0.9375 -1.65625 2.828125zm10.363281 7.3125l2.609375 -12.453125l1.875 0l-0.53125 2.546875q0.953125 -1.4375 1.875 -2.125q0.921875 -0.703125 1.890625 -0.703125q0.625 0 1.546875 0.46875l-0.859375 1.96875q-0.546875 -0.40625 -1.203125 -0.40625q-1.125 0 -2.296875 1.25q-1.171875 1.234375 -1.828125 4.453125l-1.0625 5.0l-2.015625 0zm11.1328125 0l-2.03125 -12.453125l2.0625 0l1.0625 6.859375q0.171875 1.125 0.4375 3.671875q0.609375 -1.328125 1.546875 -3.03125l4.171875 -7.5l2.234375 0l-7.125 12.453125l-2.359375 0zm11.875 -14.781254l0.5 -2.40625l2.109375 0l-0.5 2.40625l-2.109375 0zm-3.09375 14.781254l2.59375 -12.453125l2.125 0l-2.59375 12.453125l-2.125 0zm14.003906 -4.53125l2.125 0.21875q-0.796875 2.328125 -2.28125 3.46875q-1.46875 1.125 -3.34375 1.125q-2.015625 0 -3.28125 -1.3125q-1.265625 -1.3125 -1.265625 -3.671875q0 -2.03125 0.8125 -4.0q0.8125 -1.96875 2.3125 -3.0q1.515625 -1.03125 3.4375 -1.03125q2.015625 0 3.1875 1.140625q1.171875 1.125 1.171875 2.984375l-2.09375 0.140625q-0.015625 -1.171875 -0.6875 -1.84375q-0.671875 -0.671875 -1.765625 -0.671875q-1.28125 0 -2.21875 0.8125q-0.9375 0.8125 -1.46875 2.453125q-0.53125 1.640625 -0.53125 3.171875q0 1.59375 0.703125 2.390625q0.703125 0.796875 1.734375 0.796875q1.03125 0 1.96875 -0.78125q0.9375 -0.796875 1.484375 -2.390625zm12.546875 0.296875l2.0625 0.21875q-0.4375 1.53125 -2.046875 2.921875q-1.59375 1.375 -3.8125 1.375q-1.375 0 -2.53125 -0.640625q-1.15625 -0.640625 -1.765625 -1.859375q-0.59375 -1.21875 -0.59375 -2.78125q0 -2.03125 0.9375 -3.9375q0.9375 -1.921875 2.4375 -2.859375q1.5 -0.9375 3.25 -0.9375q2.234375 0 3.5625 1.390625q1.328125 1.375 1.328125 3.765625q0 0.921875 -0.171875 1.875l-9.15625 0q-0.046875 0.375 -0.046875 0.65625q0 1.75 0.796875 2.671875q0.8125 0.921875 1.96875 0.921875q1.09375 0 2.140625 -0.71875q1.0625 -0.71875 1.640625 -2.0625zm-6.15625 -3.078125l6.984375 0q0 -0.328125 0 -0.46875q0 -1.59375 -0.796875 -2.4375q-0.796875 -0.859375 -2.046875 -0.859375q-1.359375 0 -2.484375 0.9375q-1.109375 0.9375 -1.65625 2.828125zm17.3125 7.3125l3.59375 -17.187504l12.40625 0l-0.40625 1.96875l-10.109375 0l-1.125 5.343754l9.84375 0l-0.40625 1.953125l-9.84375 0l-1.25 5.96875l10.828125 0l-0.421875 1.953125l-13.109375 0zm14.8984375 0l5.40625 -6.3125l-3.09375 -6.140625l2.34375 0l1.046875 2.21875q0.59375 1.25 1.0625 2.375l3.578125 -4.59375l2.59375 0l-5.234375 6.296875l3.140625 6.15625l-2.34375 0l-1.234375 -2.53125q-0.40625 -0.8125 -0.90625 -2.0l-3.703125 4.53125l-2.65625 0zm21.21875 -1.546875q-1.09375 0.953125 -2.125 1.390625q-1.015625 0.4375 -2.171875 0.4375q-1.71875 0 -2.78125 -1.015625q-1.046875 -1.015625 -1.046875 -2.59375q0 -1.046875 0.46875 -1.84375q0.46875 -0.8125 1.25 -1.296875q0.796875 -0.484375 1.9375 -0.6875q0.703125 -0.140625 2.703125 -0.21875q2.0 -0.09375 2.875 -0.4375q0.234375 -0.859375 0.234375 -1.4375q0 -0.734375 -0.53125 -1.15625q-0.734375 -0.59375 -2.15625 -0.59375q-1.34375 0 -2.1875 0.59375q-0.84375 0.59375 -1.234375 1.6875l-2.140625 -0.1875q0.65625 -1.859375 2.078125 -2.84375q1.421875 -0.984375 3.59375 -0.984375q2.296875 0 3.65625 1.109375q1.03125 0.8125 1.03125 2.125q0 1.0 -0.296875 2.3125l-0.6875 3.09375q-0.328125 1.484375 -0.328125 2.40625q0 0.578125 0.25 1.6875l-2.140625 0q-0.171875 -0.609375 -0.25 -1.546875zm0.78125 -4.765625q-0.4375 0.1875 -0.953125 0.28125q-0.5 0.09375 -1.703125 0.1875q-1.84375 0.171875 -2.609375 0.421875q-0.765625 0.25 -1.15625 0.8125q-0.375 0.546875 -0.375 1.203125q0 0.890625 0.609375 1.46875q0.609375 0.578125 1.75 0.578125q1.0625 0 2.03125 -0.546875q0.96875 -0.5625 1.53125 -1.5625q0.5625 -1.0 0.875 -2.84375zm4.1601562 6.3125l2.609375 -12.453125l2.125 0l-0.4375 2.0625q1.1875 -1.328125 2.109375 -1.828125q0.9375 -0.515625 2.03125 -0.515625q1.15625 0 1.9375 0.625q0.78125 0.609375 1.015625 1.71875q0.953125 -1.171875 2.0 -1.75q1.046875 -0.59375 2.21875 -0.59375q1.546875 0 2.328125 0.75q0.78125 0.734375 0.78125 2.0625q0 0.578125 -0.265625 1.90625l-1.671875 8.015625l-2.125 0l1.703125 -8.234375q0.234375 -1.0 0.234375 -1.4375q0 -0.609375 -0.390625 -0.953125q-0.390625 -0.359375 -1.09375 -0.359375q-0.953125 0 -1.9375 0.578125q-0.984375 0.578125 -1.53125 1.515625q-0.53125 0.921875 -0.953125 2.859375l-1.265625 6.03125l-2.109375 0l1.75 -8.40625q0.1875 -0.859375 0.1875 -1.21875q0 -0.609375 -0.390625 -0.984375q-0.375 -0.375 -0.984375 -0.375q-0.890625 0 -1.890625 0.578125q-0.984375 0.578125 -1.609375 1.609375q-0.625 1.015625 -1.015625 2.90625l-1.234375 5.890625l-2.125 0zm18.960938 4.765625l3.609375 -17.21875l1.953125 0l-0.359375 1.734375q1.078125 -1.125 1.9375 -1.5625q0.875 -0.453125 1.828125 -0.453125q1.78125 0 2.953125 1.296875q1.171875 1.296875 1.171875 3.71875q0 1.9375 -0.640625 3.546875q-0.640625 1.59375 -1.578125 2.5625q-0.9375 0.96875 -1.90625 1.4375q-0.953125 0.453125 -1.96875 0.453125q-2.234375 0 -3.46875 -2.28125l-1.40625 6.765625l-2.125 0zm4.203125 -9.859375q0 1.40625 0.203125 1.9375q0.28125 0.765625 0.953125 1.234375q0.671875 0.46875 1.546875 0.46875q1.828125 0 2.953125 -2.046875q1.125 -2.0625 1.125 -4.21875q0 -1.578125 -0.765625 -2.4375q-0.75 -0.859375 -1.875 -0.859375q-0.796875 0 -1.5 0.4375q-0.6875 0.421875 -1.28125 1.265625q-0.59375 0.84375 -0.984375 2.078125q-0.375 1.234375 -0.375 2.140625zm10.035156 5.09375l3.578125 -17.187504l2.125 0l-3.59375 17.187504l-2.109375 0zm14.628906 -4.234375l2.0625 0.21875q-0.4375 1.53125 -2.046875 2.921875q-1.59375 1.375 -3.8125 1.375q-1.375 0 -2.53125 -0.640625q-1.15625 -0.640625 -1.765625 -1.859375q-0.59375 -1.21875 -0.59375 -2.78125q0 -2.03125 0.9375 -3.9375q0.9375 -1.921875 2.4375 -2.859375q1.5 -0.9375 3.25 -0.9375q2.234375 0 3.5625 1.390625q1.328125 1.375 1.328125 3.765625q0 0.921875 -0.171875 1.875l-9.15625 0q-0.046875 0.375 -0.046875 0.65625q0 1.75 0.796875 2.671875q0.8125 0.921875 1.96875 0.921875q1.09375 0 2.140625 -0.71875q1.0625 -0.71875 1.640625 -2.0625zm-6.15625 -3.078125l6.984375 0q0 -0.328125 0 -0.46875q0 -1.59375 -0.796875 -2.4375q-0.796875 -0.859375 -2.046875 -0.859375q-1.359375 0 -2.484375 0.9375q-1.109375 0.9375 -1.65625 2.828125z" fill-rule="nonzero"/><path fill="#000000" fill-opacity="0.0" d="m8.803112 48.62766l6.633259 -4.583744l2.5338745 -7.416256l8.199345 -2.0980835E-4l6.63356 -4.583309l6.63356 4.583309l8.199345 2.0980835E-4l2.5338745 7.416256l6.633259 4.583744l-2.5335999 7.416481l2.5335999 7.416481l-6.633259 4.583744l-2.5338745 7.416252l-8.199345 2.1362305E-4l-6.63356 4.5833054l-6.63356 -4.5833054l-8.199345 -2.1362305E-4l-2.5338745 -7.416252l-6.633259 -4.583744l2.533599 -7.416481z" fill-rule="evenodd"/><path stroke="#000000" stroke-width="4.0" stroke-linejoin="round" stroke-linecap="butt" d="m8.803112 48.62766l6.633259 -4.583744l2.5338745 -7.416256l8.199345 -2.0980835E-4l6.63356 -4.583309l6.63356 4.583309l8.199345 2.0980835E-4l2.5338745 7.416256l6.633259 4.583744l-2.5335999 7.416481l2.5335999 7.416481l-6.633259 4.583744l-2.5338745 7.416252l-8.199345 2.1362305E-4l-6.63356 4.5833054l-6.63356 -4.5833054l-8.199345 -2.1362305E-4l-2.5338745 -7.416252l-6.633259 -4.583744l2.533599 -7.416481z" fill-rule="evenodd"/><path fill="#000000" d="m25.764496 62.964138l0 -13.359375l4.03125 0l2.421875 9.109375l2.390625 -9.109375l4.046875 0l0 13.359375l-2.5 0l0 -10.515625l-2.65625 10.515625l-2.59375 0l-2.640625 -10.515625l0 10.515625l-2.5 0z" fill-rule="nonzero"/></g></svg>