<svg version="1.1" viewBox="0.0 0.0 100.0 100.0" fill="none" stroke="none" stroke-linecap="square" stroke-miterlimit="10" xmlns:xlink="http://www.w3.org/1999/xlink" xmlns="http://www.w3.org/2000/svg"><clipPath id="p.0"><path d="m0 0l100.0 0l0 100.0l-100.0 0l0 -100.0z" clip-rule="nonzero"/></clipPath><g clip-path="url(#p.0)"><path fill="#000000" fill-opacity="0.0" d="m0 0l100.0 0l0 100.0l-100.0 0z" fill-rule="evenodd"/><path fill="#000000" fill-opacity="0.0" d="m6.803083 36.65131l11.938993 -8.250143l4.5606422 -13.348283l14.757744 -3.7574768E-4l11.939537 -8.249359l11.939537 8.249359l14.757744 3.7574768E-4l4.5606384 13.348283l11.938995 8.250143l-4.5601425 13.34869l4.5601425 13.34869l-11.938995 8.250141l-4.5606384 13.348282l-14.757744 3.8146973E-4l-11.939537 8.249359l-11.939537 -8.249359l-14.757744 -3.8146973E-4l-4.5606422 -13.348282l-11.938993 -8.250141l4.560144 -13.34869z" fill-rule="evenodd"/><path stroke="#000000" stroke-width="4.0" stroke-linejoin="round" stroke-linecap="butt" d="m6.803083 36.65131l11.938993 -8.250143l4.5606422 -13.348283l14.757744 -3.7574768E-4l11.939537 -8.249359l11.939537 8.249359l14.757744 3.7574768E-4l4.5606384 13.348283l11.938995 8.250143l-4.5601425 13.34869l4.5601425 13.34869l-11.938995 8.250141l-4.5606384 13.348282l-14.757744 3.8146973E-4l-11.939537 8.249359l-11.939537 -8.249359l-14.757744 -3.8146973E-4l-4.5606422 -13.348282l-11.938993 -8.250141l4.560144 -13.34869z" fill-rule="evenodd"/><path fill="#000000" d="m31.523327 69.2l0 -38.171875l11.53125 0l6.921875 26.031252l6.84375 -26.031252l11.562504 0l0 38.171875l-7.156254 0l0 -30.046875l-7.578125 30.046875l-7.421875 0l-7.546875 -30.046875l0 30.046875l-7.15625 0z" fill-rule="nonzero"/></g></svg>